<svg xmlns="http://www.w3.org/2000/svg" width="712" height="443" viewBox="0 0 712 443" fill="none">
  <defs>
    <linearGradient id="grad" x1="0%" y1="35%" x2="100%" y2="65%">
      <stop offset="0%" stop-color="#6f9bff"/>
      <stop offset="55%" stop-color="#2f6be6"/>
      <stop offset="100%" stop-color="#1d4ed8"/>
    </linearGradient>
  </defs>
  <path d="M 695.0 194.0 L 677.0 193.0 L 663.0 201.0 L 612.0 268.0 L 630.0 278.0 L 642.0 290.0 L 651.0 305.0 L 710.0 225.0 L 711.0 211.0 L 709.0 206.0 L 702.0 198.0 Z M 4.0 164.0 L 0.0 192.0 L 2.0 219.0 L 9.0 245.0 L 23.0 274.0 L 49.0 309.0 L 127.0 393.0 L 156.0 436.0 L 165.0 442.0 L 173.0 441.0 L 179.0 433.0 L 178.0 425.0 L 172.0 413.0 L 143.0 372.0 L 57.0 274.0 L 40.0 244.0 L 32.0 220.0 L 29.0 200.0 L 30.0 181.0 L 40.0 150.0 L 52.0 133.0 L 64.0 121.0 L 91.0 107.0 L 101.0 105.0 L 133.0 107.0 L 150.0 114.0 L 166.0 126.0 L 175.0 136.0 L 186.0 156.0 L 193.0 183.0 L 193.0 208.0 L 200.0 216.0 L 210.0 217.0 L 233.0 201.0 L 267.0 186.0 L 307.0 177.0 L 324.0 177.0 L 337.0 180.0 L 344.0 184.0 L 355.0 198.0 L 356.0 215.0 L 354.0 222.0 L 338.0 248.0 L 306.0 278.0 L 225.0 335.0 L 195.0 366.0 L 187.0 380.0 L 184.0 395.0 L 187.0 406.0 L 198.0 415.0 L 223.0 418.0 L 247.0 413.0 L 269.0 405.0 L 368.0 358.0 L 411.0 344.0 L 442.0 338.0 L 450.0 339.0 L 451.0 344.0 L 425.0 381.0 L 424.0 392.0 L 426.0 396.0 L 434.0 402.0 L 446.0 405.0 L 464.0 405.0 L 486.0 401.0 L 551.0 381.0 L 575.0 370.0 L 620.0 343.0 L 642.0 314.0 L 639.0 303.0 L 629.0 291.0 L 614.0 281.0 L 602.0 278.0 L 579.0 308.0 L 557.0 356.0 L 551.0 360.0 L 480.0 380.0 L 456.0 384.0 L 453.0 382.0 L 468.0 361.0 L 474.0 349.0 L 474.0 330.0 L 462.0 318.0 L 452.0 315.0 L 429.0 315.0 L 406.0 319.0 L 368.0 330.0 L 323.0 349.0 L 248.0 387.0 L 228.0 394.0 L 214.0 395.0 L 212.0 393.0 L 214.0 386.0 L 229.0 370.0 L 332.0 301.0 L 369.0 264.0 L 379.0 247.0 L 386.0 222.0 L 384.0 197.0 L 373.0 176.0 L 363.0 166.0 L 342.0 155.0 L 329.0 152.0 L 306.0 151.0 L 283.0 154.0 L 255.0 162.0 L 216.0 182.0 L 213.0 163.0 L 206.0 142.0 L 200.0 130.0 L 185.0 110.0 L 174.0 100.0 L 156.0 89.0 L 122.0 79.0 L 98.0 79.0 L 79.0 83.0 L 49.0 98.0 L 23.0 124.0 L 14.0 138.0 Z M 612.0 302.0 L 616.0 307.0 L 611.0 317.0 L 585.0 345.0 L 573.0 354.0 L 573.0 350.0 L 584.0 333.0 L 602.0 310.0 Z M 352.0 1.0 L 337.0 6.0 L 325.0 13.0 L 306.0 33.0 L 297.0 54.0 L 297.0 84.0 L 308.0 108.0 L 328.0 126.0 L 352.0 135.0 L 381.0 135.0 L 402.0 127.0 L 422.0 109.0 L 430.0 95.0 L 434.0 82.0 L 434.0 58.0 L 425.0 34.0 L 407.0 14.0 L 382.0 2.0 L 368.0 0.0 Z M 353.0 28.0 L 374.0 27.0 L 385.0 31.0 L 397.0 41.0 L 406.0 58.0 L 407.0 74.0 L 402.0 89.0 L 389.0 103.0 L 376.0 109.0 L 362.0 110.0 L 345.0 105.0 L 332.0 94.0 L 325.0 80.0 L 324.0 62.0 L 330.0 46.0 L 340.0 35.0 Z" fill="url(#grad)" fill-rule="evenodd" shape-rendering="geometricPrecision"/>
</svg>