<?xml version="1.0" encoding="UTF-8" standalone="no"?>
<!DOCTYPE svg PUBLIC "-//W3C//DTD SVG 1.1//EN" "http://www.w3.org/Graphics/SVG/1.1/DTD/svg11.dtd">
<svg width="100%" height="100%" viewBox="0 0 1257 1257" version="1.1" xmlns="http://www.w3.org/2000/svg" xmlns:xlink="http://www.w3.org/1999/xlink" xml:space="preserve" xmlns:serif="http://www.serif.com/" style="fill-rule:evenodd;clip-rule:evenodd;stroke-linejoin:round;stroke-miterlimit:2;">
    <g transform="matrix(1,0,0,1,-3258.611115,-4673.24358)">
        <g transform="matrix(1,0,0,1,-1406.150623,4301.64358)">
            <g transform="matrix(1,0,0,1,2032.272347,0)">
                <path d="M2632.489,371.6L3018.089,371.6L3018.089,471.6L2732.489,471.6L2732.489,950L2632.489,950L2632.489,371.6ZM3118.089,1528.4L3403.689,1528.4L3403.689,1628.4L3118.089,1628.4L3118.089,1528.4ZM3889.289,1624.8L3503.689,1624.8L3503.689,1524.8L3789.289,1524.8L3789.289,1046.4L3889.289,1046.4L3889.289,1624.8ZM2825.289,564.4L3696.489,564.4L3696.489,1435.6L2825.289,1435.6L2825.289,564.4ZM3889.289,375.2L3889.289,953.6L3789.289,953.6L3789.289,475.2L3503.689,475.2L3503.689,375.2L3889.289,375.2ZM3118.089,371.6L3403.689,371.6L3403.689,471.6L3118.089,471.6L3118.089,371.6ZM2732.489,1050L2732.489,1528.4L3018.089,1528.4L3018.089,1628.4L2632.489,1628.4L2632.489,1050L2732.489,1050Z" style="fill:#311049;"/>
            </g>
        </g>
    </g>
</svg>
